<?xml version="1.0" encoding="utf-8"?>
<!-- Generator: Adobe Illustrator 21.1.0, SVG Export Plug-In . SVG Version: 6.00 Build 0)  -->
<svg version="1.1" id="Layer_1" xmlns="http://www.w3.org/2000/svg" xmlns:xlink="http://www.w3.org/1999/xlink" x="0px" y="0px"
	 viewBox="0 0 197.6 75.8" style="enable-background:new 0 0 197.6 75.8;" xml:space="preserve">
<defs><linearGradient id="gradient" x1="0%" y1="50%" x2="100%" y2="50%" ><stop offset="0%" style="stop-color:rgb(187,154,77); stop-opacity:1"><animate id="stop1" attributeName="stop-color" values="rgb(187,154,77); rgb(241,218,180); rgb(187,154,77)" dur="1s" begin="0.5s;stop1.end+5s"></animate></stop><stop offset="10%" style="stop-color:rgb(187,154,77); stop-opacity:1"><animate id="stop2" attributeName="stop-color" values="rgb(187,154,77); rgb(241,218,180); rgb(187,154,77)" dur="1s" begin="0.6s;stop2.end+5s"></animate></stop><stop offset="20%" style="stop-color:rgb(187,154,77); stop-opacity:1"><animate id="stop3" attributeName="stop-color" values="rgb(187,154,77); rgb(241,218,180); rgb(187,154,77)" dur="1s" begin="0.7s;stop3.end+5s"></animate></stop><stop offset="30%" style="stop-color:rgb(187,154,77); stop-opacity:1"><animate id="stop4" attributeName="stop-color" values="rgb(187,154,77); rgb(241,218,180); rgb(187,154,77)" dur="1s" begin="0.8s;stop4.end+5s"></animate></stop><stop offset="40%" style="stop-color:rgb(187,154,77); stop-opacity:1"><animate id="stop5" attributeName="stop-color" values="rgb(187,154,77); rgb(241,218,180); rgb(187,154,77)" dur="1s" begin="0.9s;stop5.end+5s"></animate></stop><stop offset="50%" style="stop-color:rgb(187,154,77);stop-opacity:1"><animate id="stop6" attributeName="stop-color" values="rgb(187,154,77); rgb(241,218,180); rgb(187,154,77)" dur="1s" begin="1.0s;stop6.end+5s"></animate></stop><stop offset="60%" style="stop-color:rgb(187,154,77);stop-opacity:1"><animate id="stop7" attributeName="stop-color" values="rgb(187,154,77); rgb(241,218,180); rgb(187,154,77)" dur="1s" begin="1.1s;stop7.end+5s"></animate></stop><stop offset="70%" style="stop-color:rgb(187,154,77);stop-opacity:1"><animate id="stop8" attributeName="stop-color" values="rgb(187,154,77); rgb(241,218,180); rgb(187,154,77)" dur="1s" begin="1.2s;stop8.end+5s"></animate></stop><stop offset="80%" style="stop-color:rgb(187,154,77);stop-opacity:1"><animate id="stop9" attributeName="stop-color" values="rgb(187,154,77); rgb(241,218,180); rgb(187,154,77)" dur="1s" begin="1.3s;stop9.end+5s"></animate></stop><stop offset="90%" style="stop-color:rgb(187,154,77);stop-opacity:1"><animate id="stop10" attributeName="stop-color" values="rgb(187,154,77); rgb(241,218,180); rgb(187,154,77)" dur="1s" begin="1.4s;stop10.end+5s"></animate></stop><stop offset="100%" style="stop-color:rgb(187,154,77);stop-opacity:1"><animate id="stop11" attributeName="stop-color" values="rgb(187,154,77); rgb(241,218,180); rgb(187,154,77)" dur="1s" begin="1.5s;stop11.end+5s"></animate></stop></linearGradient></defs>
<path fill="url('#gradient')" d="M111.1,22.5c0-1.1-0.9-1.9-1.5-2.3c-0.1-0.1,0-0.2,0-0.2c-0.1-0.1-0.3,0.1-0.4,0c-0.1,0-0.1-0.2-0.2-0.3
	c-0.2-0.1-0.5-0.2-0.8-0.3c-0.4-0.2-1.2-0.5-1.6-0.6c-1.5-0.3-3.1-0.5-4.5-0.9c-1.3-0.4-2.8-0.6-4.6-0.6c-1.1,0-2.1-0.1-2.9-0.4
	c-0.3-0.1-0.8-0.2-1.1-0.3c-0.4-0.1-1.5,0-1.7-0.3c-0.2,0.1,0,0-0.1,0.1c-0.4-0.3-1.5-0.2-2-0.2c-0.6,0-2.9-0.4-3.3,0
	c-0.3-0.2-2-0.3-2.1-0.1c-0.3-0.3-2.3-0.5-2.8-0.5c-1.3-0.1-2.6-0.1-3.9-0.2c-0.6,0-1.6-0.2-2-0.3C74.7,15,73.7,15,73,14.9
	c-1.2-0.2-2.7-0.2-3.8-0.4c-1.2-0.2-2.7-0.2-4.2-0.6c-0.5-0.1-4-0.1-3.9-0.5H61v0.1c-0.3-0.2-0.5-0.2-0.9-0.2c0,0-0.2,0.2-0.5,0.2
	l-0.1-0.1c-0.2-0.1-0.4-0.3-0.8-0.2v0.1c0.3,0,0.3,0.1,0.3,0.3c-0.5-0.1-1-0.2-1.3-0.1v-0.1c0.2-0.1,0.6-0.2,0.7,0h0.1
	c0-0.5-2.1-0.7-2.7-0.7h-0.5c-0.3,0.1-0.2,0.1-0.3,0.2c-0.3,0.2,0.3,0.4-0.3,0.4c0.3,0-0.3-0.3-0.2-0.2V13c0.2,0,0.3,0,0.5,0
	c0-0.5-0.8-0.4-1.1-0.4l-0.6-0.1c-0.3,0.1,0,0.5,0.1,0.5l0.1-0.1c0.1,0.6-0.4,0.2-0.6,0.3h-0.1c0.1-0.3,0.1-0.5,0.2-0.7
	c-0.3-0.2-1.2,0-1.4-0.2h-0.1c0,0.1,0,0.2,0,0.2h-0.1c-0.1-0.2-0.6-0.3-0.6,0.1c0-0.6-2-0.4-2.5-0.5c-0.6-0.1-1.1,0.1-1.7-0.1
	c-0.3-0.1-0.9-0.5-1.1-0.2c-0.4-0.2-0.8-0.3-1.2-0.5c-0.1,0.2-0.1,0.1-0.1,0.3h-0.1c0-0.1,0-0.2,0-0.4H44c-0.2,0-0.7,0-0.7,0.5h-0.1
	c-0.1-0.1-0.2-0.1-0.2-0.4c-0.4,0.4-0.5-0.2-0.9-0.1v0.1c0.1,0.1,0.2,0.2-0.1,0.2c0-0.4-0.9-0.4-0.8,0c-0.3-0.1-0.4,0-0.6-0.1v0.1
	c-0.1-0.1,0-0.1-0.2-0.1v-0.1c0.3-0.2,0,0,0.2-0.3h-0.1c-0.1,0-0.3,0-0.5,0.1c-0.1-0.2-0.3,0-0.4,0.2h-0.1c0-0.1,0-0.2,0-0.2
	c-0.3-0.1-1.5-0.1-1.8,0c-0.1-0.1-0.1-0.1-0.1-0.2c-0.1,0.2-0.2-0.5-0.1,0.2c-0.1,0-0.3,0-0.5,0c0-0.1,0-0.2,0-0.2
	c-0.2,0.1-0.3,0-0.5,0.1c0-0.7-1.1,0.1-1.3-0.2h-0.1v0.1H35c0-0.1,0-0.2,0-0.2c-0.4,0-1.1-0.2-1.2-0.1c-0.2-0.2-0.5,0.2-0.7-0.2
	c-0.1,0.1-0.2,0.1-0.3,0.2c0-0.3-1.6-0.3-1.6-0.2c0.2,0,0.1,0.1,0.3,0.1v0.1c-0.3-0.1-0.4-0.1-0.7-0.1c0-0.1,0-0.2,0-0.3h-0.1
	c-0.1,0.2-0.8,0.3-1.1,0.1v0.1c-0.2-0.2-0.4,0-0.6,0.1c0.2-0.7-1.2-0.1-1.2-0.7c-0.3,0.1-0.5,0.3-0.7,0.1V10H27V9.9
	c-0.3,0.2-1.4,0.1-1.6,0c-0.3-0.1-1.1-0.8-0.8-0.3v0.1c-0.2-0.1-0.3,0-0.5-0.1c0,0.1,0,0.2,0,0.3H24c-0.5-0.4-1.2-0.2-2-0.4
	c0.1-0.1,0,0,0.1-0.1c0-0.1-0.1-0.3-0.2-0.3h-0.1c0.1,0.2,0,0.2,0.1,0.4c-0.3-0.1-0.6-0.1-0.9-0.2c0,0.1,0,0.1,0,0.2
	c-0.4,0.1-0.7,0-0.6-0.4h-0.1c-0.1,0.2-1.1-0.2-1.5-0.2V9C18.9,9,19,9,19,9v0.1c-0.2,0.1-0.4,0.1-0.5,0.1C18.3,9,17.9,9.3,17.8,9
	l-0.3,0.1c0-0.2,0.1-0.2-0.2-0.3c0,0.1,0,0.2,0,0.3c-0.1,0-0.2,0-0.2,0V9h0.1V8.9c-0.4,0-0.5,0.1-0.8,0.1c0-0.1,0.1-0.1,0.1-0.2
	c-0.1,0.1,0-0.1-0.1,0.1h-0.1c0-0.4-0.1-0.5-0.2-0.1c-0.1-0.1-0.3-0.1-0.4-0.2c0.1,0.1,0,0.1,0.1,0.3C15.2,9.3,15.1,9.1,15,9
	c-0.2,0.1-0.4,0.1-0.5,0.4c-0.2,0-0.3-0.1-0.4-0.3C14.7,9,13.9,8.6,13.6,9c-0.3-0.4-2.1-0.6-2.4-0.3v0.1c0.3,0,0.2,0.1,0.5,0.1V9
	c-0.2,0.1-0.9,0.3-0.9-0.1c0.1,0.1,0.1,0,0.3,0.1c0-0.1,0-0.2,0-0.3H11v0.1c-0.2-0.1-0.3-0.2-0.5-0.2c-0.1,0.1-0.1,0.1-0.1,0.1v0.1
	c0.1,0,0.2,0,0.3,0v0.1c-0.3,0.1-0.6,0.2-0.9,0C9.7,9.2,9.5,9,9.2,8.9V8.8c0.1,0,0.2,0,0.2,0c0-0.1,0-0.2,0-0.3H9.3v0.1
	C9.1,8.4,8.6,8.4,8.6,8.7H8.5c0-0.1,0-0.2,0-0.3c-0.4,0-1.1-0.2-1.3,0C7.1,8.5,7,8.5,6.9,8.8c-0.1,0-0.2,0-0.2,0v0.1
	c0.1,0,0.2,0,0.2,0c0,0.1-0.1,0-0.1,0.2c-0.2,0-0.6-0.3-1-0.3S4.4,8.6,4.4,8.9C5,8.9,4.5,9,4.9,9C4.9,9.4,4,9.5,4,9
	c0.2,0,0.3,0.4,0.3-0.2C4.1,8.8,4,8.6,3.8,8.6c0,0.2,0,0.1-0.1,0.2c0,0,0.3,0,0.3,0.2C3.7,9,3.7,9.2,3.4,9.2C3.3,9.3,3,8.7,3,9.2
	c-0.1,0-0.6-0.1-0.6-0.3c0.2,0.1,0.3,0,0.2-0.3c0,0-0.4,0-0.5,0C2,8.7,1.9,8.9,1.8,8.9c0-0.5-1.1-0.3-1.3-0.3C0.5,8.3,0,8.8,0,8.9
	c0.3,0,0.4,0.2,0.7,0.2c0.5,0.1,0.9,0.1,1.5,0.1c0.7,0.1,1.2,0.2,2,0.4c1.1,0.2,2,0.4,3.1,0.6c0.4,0.1,1,0.3,1.4,0.3
	c0.3,0,1-0.1,1.4-0.1s2.3,0.9,2.3,0.2c0.1,0,0.2,0,0.3,0.1c0,0.3-0.1,0-0.1,0.3c0.2,0,0.9,0,0.9,0c0.3,0.1,0.2,0.3,0.6,0.4
	c0.2,0,0.7-0.1,0.9-0.1c0,0.6,1.8,0.4,2,0.4c0.4,0,1.8,0,1.8,0.2c0.2,0,0-0.1,0.2-0.1c0,0.7,1.7,0.3,1.9,0.3c0.2,0,0.7,0.1,1.1,0.1
	c0.5,0,0.9,0.2,1.6,0.2c0.4,0,0.8,0.1,1.1,0.2c0.1,0,0.6,0,0.7,0c0.2,0,0.4,0.2,0.4,0.2c0.5,0,1,0,1.4,0c0.1,0,1,0.2,1,0.2
	c0.5,0,0.5,0.4,1.1,0.4c0.3,0,0.6-0.1,0.9-0.1c0.4,0.1,1.3,0.3,1.8,0.4c1,0.2,1.1-0.4,1.1,0.3c0.1,0.1,0.3-0.1,0.5-0.1
	c0-0.1,0-0.2,0-0.2c0.3-0.1,0.4-0.1,0.3,0.1c0.4-0.2,0.6-0.1,0.5,0.2s0,0.4,0.3,0.2c0.1,0.1,0.1,0.1,0.3,0.1c0.3,0,0.9,0.3,1.2,0.3
	s0.6,0,0.9,0c0-0.1,0-0.2,0-0.3c0.2-0.1,0-0.3,0.2-0.4c0.1,0.2,0.2,0.1,0.3,0.3c0.1,0.1-0.1,0.5-0.1,0.3c0.1,0.4,0.5,0.5,0.9,0.6
	c0.7,0.2,1.7,0,2,0c0.1,0,0.4,0.1,0.6,0.2c0.3,0.2,0.4,0.1,0.6,0.1c0.6,0.1,1.2,0.2,1.9,0.4c0.9,0.2,2,0.3,2.7,0.5
	c0.4,0.1,0.7,0.1,1.1,0.1c0.3-0.1,0.6-0.1,0.8,0c0.3,0.1,0.2,0.4,0.6,0.4c0-0.8,1.8,0,1.8-0.2c0.3,0.1,0.5,0.3,0.8,0.4
	c0.9,0.3,2,0.4,2.9,0.5c1.8,0.3,3.7,0.7,5.6,1c0.6,0.1,1.6,0.3,2.2,0.4c0.6,0.1,1.2,0.1,1.9,0.2c0.2,0,0.7,0.3,1,0.3
	c1.5,0,3.2,0.6,5,0.6c0-0.2-0.1,0-0.1-0.2c0.3,0.1,0.3,0.2,0.5,0.3c0.4,0.1,0.2,0,0.5,0c0,0.5,1.1,0,1.6,0c0.3,0,0.5,0.2,0.7,0.2
	c0.4,0.1,1.2,0.1,1.6,0.1c0,0.2-0.2,0.2-0.3,0.2c0,0.4,3.1,0.6,3.3,0.6c0.9,0,2,0.5,3.3,0.5c0-0.5-0.1,0-0.1-0.4
	c0.1,0.1,0.5,0.2,0.5,0.3c-0.2,0,0.1-0.1-0.2-0.1c0,0.5,0.6,0.1,0.7,0c0.1,0.1,0,0.1,0.3,0.1c0.1,0,0.3,0,0.4,0
	c0.1,0.1,0,0.2,0.1,0.2c0.5,0.2,0.7,0.2,1.5,0.3c0.3,0,0.7,0.2,0.9,0.2c0.1,0,0.6-0.2,0.7-0.2c0,0.1,0,0.1,0.1,0.1
	c0.1-0.2-0.1-0.1-0.1-0.2c0.6,0.1,1.3,0.2,2,0.1c0,0.8,1.7-0.1,1.7,0.5c-0.1,0-0.1,0-0.1,0.1c0.2,0,0.7,0.2,0.7,0
	c0-0.1-0.1,0.1-0.1-0.1c0.4,0,0,0.2,0.3,0.3c0-0.1,0.1-0.1,0.1-0.3c0.2,0,0,0.1,0.2,0.1c0-0.1,1.2,0.1,1.6,0.1
	c0.5,0.1,1,0.1,1.4,0.1c0.5,0,1,0.2,1.4,0.2c0,0,3.9,0.7,3.9,0.5c0.3,0,0.8,0.3,1,0.3c0,0.1,0.2,0.3,0.2,0.3v0.1c-0.2,0-0.4,0-0.7,0
	c0,0.5,1.7,0.3,1.7,0.1c-0.2,0.1-0.3,0-0.2-0.1c0.5,0,2,0.1,2,0.1c0.2,0,0.5,0.4,0.8,0.4c0,0.1-0.4,0.5,0,0.5c0-0.8,1.2,0.1,0.5,0.1
	c0,0.4,0.5,0.3,0.6,0.4c0.1,0,0.4,0,0.5,0.1s0.1,0.5,0,0.5c0.1-0.2,0-0.2-0.1-0.2c0,0.8,1.1,0.7,0.9,1.9c0,0.2-0.6,1-0.2,1.2
	c-0.1,0.6-0.1,0.6,0,1.2c-0.4,0.3,0,1.1,0.3,1.1c0-0.4,0.5-0.1,0.4-0.6c0.1,0,0.1,0.1,0.3,0c0.1,0,0-0.3,0.2-0.3
	c0,0.1,0,0.2,0.1,0.1c0.1-0.2,0.4-0.4,0.4-0.6c-0.2,0,0.4-0.5,0.5-0.6c0.2-0.2,0.1-0.4,0.2-0.5c0.2-0.2,0.4-0.2,0.4-0.6
	c0,0.1,0,0.1,0.1,0.1c0-0.1,0-0.1-0.1-0.1c0.3-0.1,0.4-0.2,0.3-0.5c0.3-0.2,0.5-0.8,0.6-1.2c0.1-0.2,0.7-1,0.9-1
	c0-0.2-0.1,0-0.1-0.1c0.2-0.2,0.6-1,0.7-1.3C111.1,24.5,111.4,22.5,111.1,22.5z M35.4,11.5C35.1,11.4,35.3,11.5,35.4,11.5z M7.9,9.3
	L7.9,9.3L7.9,9.3L7.9,9.3L7.9,9.3L7.9,9.3C7.8,9.4,7.8,9.4,7.8,9.5c-0.1,0-0.1,0-0.2,0c0-0.1,0-0.1,0-0.2H7.5V9.2h0.1c0,0,0,0,0-0.1
	H8L7.9,9.3C8,9.2,8,9.2,7.9,9.3C7.9,9.2,7.9,9.2,7.9,9.3z M46.8,12.7c-0.2,0-0.3,0-0.5,0.1c-0.1-0.2-0.5-0.1-0.8-0.2
	C45.9,12.6,46.6,12.4,46.8,12.7z M80.3,21.5c-0.1,0-0.2,0-0.2,0C80.1,21.4,80.3,21.4,80.3,21.5z M82.8,21.9c-0.1,0-0.3-0.2-0.3-0.2
	C82.6,21.7,82.8,21.8,82.8,21.9z M83.3,21.8c-0.2,0,0,0.1-0.2,0.1C83,21.7,83.3,21.8,83.3,21.8z M83.5,21.8
	C83.3,21.8,83.5,21.8,83.5,21.8z M84.1,21.8c-0.1,0-0.1,0-0.2,0C83.9,21.7,84.1,21.8,84.1,21.8z M84.9,22.2c-0.1,0-0.2,0-0.2,0
	C84.7,22.1,84.9,22.1,84.9,22.2z M104.7,25.8c-0.1,0-0.1-0.1,0-0.2C104.7,25.7,104.7,25.8,104.7,25.8z M105.6,31.9
	c0.2,0.1,0.3,0,0.2-0.1C105.6,31.7,105.6,31.7,105.6,31.9z M105.5,32c0.1,0,0.2,0,0.1-0.1C105.5,31.9,105.4,31.9,105.5,32z
	 M104.5,26.2c0,0.2,0.2,0.2,0.4,0.2c0-0.3-0.1,0.1-0.1-0.3C104.5,26.1,104.8,26.2,104.5,26.2z M3.4,8.7c-0.1,0-0.3,0-0.5,0v0.1H3
	v0.1l0,0l0,0c0.1,0,0.1,0,0.2,0V9c0.1,0,0.3,0,0.4,0V8.9c-0.1,0-0.2,0-0.2,0C3.4,8.8,3.4,8.7,3.4,8.7z M103.9,25.4
	c-0.1,0.2,0,0.3,0.1,0.2C104.1,25.4,104.1,25.3,103.9,25.4z M104.5,26.1c0.1,0,0.1,0.1,0.1-0.1C104.5,25.9,104.5,26,104.5,26.1z
	 M96.6,33.6c0-0.3,0-0.7-0.2-0.9c-0.3-0.3-0.8-0.2-1.4-0.2c-0.9,0-2.1,0-2.8,0.4c-0.6,0.3-0.8,0.4-1.1,1c-0.1,0.3-0.5,0.7-0.2,1.1
	c0.2,0.3,1,0,1.1,0.4c0.4-0.1,0.9-0.2,1.4-0.2c-0.4,0.8-0.5,1.6-1,2.5c-0.5,0.8-0.8,1.3-1.2,2.1c-0.7,1.4-1.6,3.1-2.2,4.9
	c-0.2,0.5-0.6,1.3-0.8,1.7c-0.1,0.3-0.3,0.5-0.3,1s0.2,0.5,0.1,0.7c0.1,0,0.1,0,0.2,0c-0.2,0.2-0.6,0.6-0.2,0.8
	c0.1-0.2,0.6-0.4,0.6-0.7c-0.1,0-0.1,0-0.1-0.1c0.5-0.1,0.7-1.2,0.9-1.7c0.3-0.6,0.7-1.3,1.1-1.9c0.7-1.2,1.2-2.7,1.9-4
	c0.3-0.5,0.6-1.2,1-1.8c0.1,0.1,0.1,0,0.3,0.1c-0.1-0.1,0-0.1-0.1-0.3c0.1,0.1,0.1,0,0.2,0.1c0,0-0.1-0.2-0.1-0.1
	c0.2-0.1,0.5-0.6,0.6-0.8c0.2-0.3,0.3-0.6,0.5-0.7c-0.1-0.2,0-0.1,0.1-0.3s-0.1-0.1,0-0.3s0.2,0,0.3-0.2c-0.1,0-0.1-0.1-0.2-0.1
	c0.2-0.1,0.5-0.3,0.4-0.6c0.1-0.1,0.1,0.1,0.2-0.1c-0.1,0-0.1,0-0.1-0.1C95.9,35.2,96.7,33.7,96.6,33.6z M128.5,16.6
	c0-0.1,0-0.2-0.1-0.1C128.4,16.6,128.4,16.6,128.5,16.6z M128.2,16.7c0.2,0.1,0.3,0,0.2-0.1C128.2,16.5,128.2,16.5,128.2,16.7z
	 M139.3,13.2c0.1,0,0.2,0,0.1-0.1C139.3,13.1,139.3,13.1,139.3,13.2z M127.9,16.6c0-0.1,0-0.2-0.1-0.1
	C127.7,16.6,127.7,16.6,127.9,16.6z M118.4,17.9c0.2,0,0.2-0.3,0-0.3C118.4,17.7,118.4,17.8,118.4,17.9z M197.3,0v0.1
	c0.1,0,0.2,0,0.3,0V0C197.4,0,197.4,0,197.3,0z M196.3,0.2c-0.1,0-0.2,0-0.2,0v0.1h0.1c0,0.1,0,0.2,0,0.2c-0.1,0-0.2,0-0.2,0
	c0,0.1,0,0.1,0,0.1c0.1,0,0.2,0,0.3,0c0-0.1,0-0.2,0-0.2c0.1,0,0.2,0,0.2,0v0.1l0,0l0,0h0.1l0,0l0,0V0.4h0.1l0,0l0,0
	c0-0.1,0-0.2,0-0.3C196.5,0.1,196.4,0.1,196.3,0.2C196.3,0.2,196.3,0.2,196.3,0.2z M196.9,0.3h0.1V0.2L196.9,0.3
	C196.9,0.3,196.9,0.3,196.9,0.3z M195.8,0.6c0.2-0.5-0.6-0.2-0.7-0.1c0.1,0-0.2,0.3-0.1,0.3c-0.4,0.1-0.1-0.2-0.3-0.3
	c0,0.2-0.1,0-0.1,0.3c-0.2,0-0.4-0.1-0.7,0c-0.2,0-0.6,0.1-0.8,0.2c-0.4,0.1-0.9,0.1-1.4,0.2c-0.1,0-0.8,0.2-0.9,0.2
	c-0.3,0.1-0.7,0-1.1,0.1c-0.3,0-0.8,0.3-1.1,0.3c-0.5,0.1-1.3,0-1.7,0.4c0-0.2-0.8,0.2-1,0.2c0.1-0.3-1-0.1-1-0.1
	c-0.6,0.1-1.4,0.5-2.1,0.5c-2,0.2-3.5,0.8-5.2,0.9c-0.1,0-0.6,0.1-0.8,0.2s-0.1,0.4-0.3,0.4c-0.1,0-0.7,0.1-0.7,0.1
	c-0.9,0.1-2,0.1-2.9,0.2c-0.4,0.1-0.6,0.1-1,0.1c-0.2,0-0.5,0-0.6,0l-0.1,0.2c-0.9,0.1-1.5,0.3-2.3,0.4c-0.9,0.1-1.6,0.5-2.5,0.5
	c-1.3,0-2,0.4-3.3,0.3c0,0.6-2.9,0.1-3.5,0.3c-0.4,0.1-0.8,0.4-1.2,0.4c-0.9,0.1-1.9-0.1-2.8,0c-0.8,0.1-1.8,0.2-2.7,0.3
	c-0.1,0,0,0.2-0.2,0.2s-0.5,0-0.7,0s-0.1,0.1-0.4,0.1c-0.7,0.1-1.1,0.1-1.7,0.2c-1,0.1-2,0.2-3,0.5c-0.2,0-0.6,0.3-0.6,0.3
	c-0.7,0.1-1.1,0-1.8,0.1c0,0,0,0.2-0.1,0.2c0,0-0.4,0-0.4,0.1c-0.1,0-0.5,0.2-0.5,0.2c-0.6,0.1-1.1,0.1-1.7,0.1
	c-0.9,0.1-1.3,0.4-2.3,0.4c-0.9,0.1-1.8,0.4-2.8,0.5c-0.6,0.1-1.3,0-1.9,0.2c-0.1,0-0.2,0.3-0.2,0.3c-0.4,0.1-0.9-0.2-1.4-0.2
	c0.1,0,0.1-0.1,0.2-0.1c-0.2-0.1-0.4-0.1-0.6-0.1c0.1,0.1,0.2,0.3,0.4,0.4c-0.6,0.1-1.1-0.2-1.8-0.1c-0.3,0-0.9,0.2-1.3,0.2
	c-1.3,0.1-2.1,0.1-3.2,0.3c-0.2,0.1-0.5,0.2-0.9,0.2c-0.6,0-1.5,0.1-2,0.1c-0.9,0.1-1.8,0.3-2.7,0.4c-1.1,0.1-2.1,0.2-3.4,0.3
	c-0.9,0.1-2,0.1-2.7,0.4c-0.5,0.2-1.5,0.3-2.1,0.6s-1.4,0.5-2.1,0.8c-0.3,0.2-0.6,0.2-0.9,0.4c0,0-0.1,0.3-0.2,0.3
	c-0.1,0.1-0.2,0.1-0.3,0.2c-0.2,0.2-0.2,0.2-0.3,0.6c-0.1,0.4-0.3,1.1-0.2,1.7c0.1,0.7,0.3,0.5,1,0.5c-0.5,0.5,0.2,0.8,0.7,0.9
	c0-0.1,0-0.2,0-0.3c0.1,0.2,0.2,0.6,0.4,0.7c0.4,0.3,0.8,0,0.8-0.5c0.5,0.2,1.1,0.2,1.6,0.1c0.1,0,0.7-0.2,0.6-0.2
	c0.4,0.1,0.2,0,0.2,0.3c0.4,0.1,1.8,0.1,1.8-0.3c-0.5,0-0.6-0.2-0.9-0.2c0.3-0.1,0.9,0.2,0.9-0.4c0.4,0.1,2.5-0.4,2.5-0.3
	c-0.1,0-0.1,0-0.1,0c0.3,0,1.4,0,1.4,0.2c0.3,0,0.2-0.3,0.5-0.3c0,0.5,0.1,0.1,0.2,0.1c0,0.2,0.4-0.2,0.6-0.2
	c0.2-0.1,0.6-0.2,0.9-0.2c0,0.3,0.1,0.3,0.3,0.3l0.2-0.1c0-0.1,0-0.1,0-0.2c0.2-0.1,0.4-0.1,0.3,0.1c0,0,0.4,0.3,0.4-0.1
	c-0.1,0-0.4,0.2-0.4-0.1c0.3,0,0.4-0.1,0.8,0c0,0,0.8,0.1,0.2,0.1c0,0.4,0.5,0.1,0.5-0.1c-0.3,0-0.4-0.3,0.2-0.3
	c0,0.1-0.3,0.3-0.1,0.4c0.3,0.2,0.1-0.3,0.3-0.3c0,0.5,0.3,0.1,0.3,0c0.4,0,0.7,0.1,1.1,0c0.2,0,0.3-0.3,0.5-0.3
	c0.3-0.1,0.6,0,0.9,0c0-0.2,0.2-0.3,0.4-0.3c0,0.2,0.3,0.1,0.3,0.3c0.2,0,0.5-0.3,0.7-0.3c0.1,0,1.3,0.5,1.3,0
	c-0.4,0-0.3-0.2-0.3-0.5c0.4,0,0,0.3,0.7,0.1c-0.1,0,0.3-0.3,0.1-0.3c0.3,0,0.4,0.2,0.6,0.2c0.5,0,0.7-0.3,1-0.3
	c0,0.3,0.8-0.7,0.8-0.3c0.2,0,0.2-0.2,0.3-0.2c0.2,0,0,0.2,0.2,0.1c0.1,0,0.4-0.1,0.6-0.2c0.1,0,0.8,0.1,0.8-0.3
	c0.1,0,0.5,0.3,0.5-0.1c-1,0,0.8-0.5,0-0.5c0-0.1,0.4,0,0.5,0c0,0.2-0.1-0.4-0.1,0.5c0.2,0.1,0.2-0.1,0.5-0.1c0-0.3-0.1,0-0.1-0.2
	c0.3-0.1,0.4,0,0.3,0.2c0.3,0,0-0.3,0.5-0.3c0.2,0,0.2,0.2,0.5,0.2c0-0.3-0.1,0-0.1-0.2c0.6,0,0.3,0,0.3-0.3c0.2,0,0,0.1,0.3,0.1
	c0,0.3-0.1,0-0.1,0.2c0.4,0,0.4-0.4,0.6-0.6c0.1-0.1,0.2,0.1,0.3,0.1c0-0.5,0.2-0.1,0.4-0.1c0-0.5,0-0.1,0-0.3
	c0.1,0,0.3,0.2,0.3,0.2c0.1,0,0.3-0.1,0.3-0.1c0.2,0-0.1,0.2,0.2,0.2c0-0.5,0.2,0,0.2-0.4c0.3,0-0.1,0.1,0.5,0.1
	c0,0.3-0.1,0-0.1,0.2c0.1,0,0.5-0.1,0.5-0.1c-0.3,0-0.4-0.2-0.2-0.3c0,0,0.4,0,0.3,0c0.2,0,0.3,0.1,0.5,0.1c0.1,0,0.5-0.2,0.6-0.2
	c0,0.3,0.4,0.4,0.6,0.3c0,0,0-0.3,0.2-0.3c0,0.2,1.5-0.4,1.8-0.5c0.2,0,0.8-0.1,1-0.1c0.4,0,0.7-0.2,0.9-0.2c0,0.1,0.7,0.1,0.8,0.1
	c0-0.6,2.4-0.2,2.4-1c0.2,0,0.6,0.1,0.9,0.1c0-0.3-0.1,0-0.1-0.2c0.5,0,0.9,0.2,1.4,0c0.3-0.1,0.6-0.4,0.8-0.5s0.5,0.1,0.8,0.1
	c-0.1,0,0.3-0.2,0.3-0.2c0.3-0.1,0.9-0.2,1.1-0.2c0,0.1,0,0.1,0.1,0.1c0-0.6,0.6,0.4,0.6-0.2c-0.2,0,0.3,0-0.3,0
	c0-0.4,0.6,0.1,0.7,0.1c0-0.1,0.7,0,0.7-0.5c0.3,0,1.6-0.2,2-0.2c0.3,0,1.4-0.1,1.4-0.6c0.1,0,0.2,0.1,0.2,0.3
	c0.1,0,0.7-0.1,0.6-0.4c0.2,0,0.2,0,0.5,0c0.2,0,0.5-0.2,0.6-0.2c0,0.3,0.3-0.1,0.4-0.1c0.1-0.1-0.1-0.2-0.1-0.2
	c0.4-0.1,0.7-0.2,1.2-0.2c0.1,0,0.3-0.1,0.5-0.1c-0.1,0,0.4,0,0.2,0.1c0.1,0,0.2,0,0.4,0c-0.1-0.3-0.1-0.4,0.1-0.3
	c-0.1,0.2,0,0.3,0.1,0.2c0-0.5,0.4-0.1,0.6-0.1c0-0.2,0-0.1,0.2-0.1c-0.1,0.1-0.1,0.1-0.2,0.2c0.2,0,0.5,0,0.7,0
	c-0.1-0.1-0.1-0.1-0.2-0.2c0,0,0.6-0.2,0.5-0.1c0.3-0.1,0.4,0,0.7-0.1c0.1,0,0.4-0.1,0.4-0.1c0.4-0.1,0.1-0.3,0.3-0.3
	c-0.1,0.2,0,0.3,0.1,0.3c0-0.1,0,0.1,0-0.1c0.2,0,0,0.1,0.2,0.1c0-0.1,0.3-0.3,0.3-0.3c0.1,0,0.5-0.1,0.8-0.1
	c0.4-0.1,0.3-0.2,0.6-0.3c0.8-0.3,1.5,0,2.4-0.1c0.8-0.1,0.5-0.2,1.1-0.3c0.5-0.1,0.9-0.1,1.4-0.1c0.8,0,1.3-0.3,2-0.5
	c0.7-0.3,1.7-0.1,2.5-0.2c0.2,0,0-0.2,0.2-0.2c0.3,0,0.7,0.1,1,0c0.2-0.1,0.2-0.3,0.2-0.3c0.2-0.1,0.4-0.1,0.8-0.1
	c0.7,0,0.6-0.1,1.1-0.3c0.3-0.1,0.9-0.1,1.2-0.2c0.2-0.1,0.4-0.3,0.7-0.3c0.6-0.1,1.3,0.1,1.9,0V3.7c0.2,0,0.4,0,0.6,0
	c0.2,0,0.2,0,0.5-0.1s0.7-0.1,1.1-0.2c0.4-0.1,0.8-0.3,1.1-0.3c0.4-0.1,1.2,0.1,1-0.5c0.2,0,0.4,0.1,0.5,0.1c0-0.2,0.1-0.2,0.1-0.3
	c0.2,0,0.3,0,0.5,0c0,0.1,0,0.2,0.1,0.1c0-0.3-0.1,0.1-0.1-0.3c0.2,0,0.1,0,0.3,0c0,0.5,0.7,0.1,0.7-0.1c-0.2,0-0.2-0.1-0.3-0.1
	c0-0.5,0.5,0.1,0.6,0.1c0-0.1,0-0.2,0.1-0.1c0,0.3,0.7,0,0.7,0c0,0.1,0.1,0.2,0.2,0.2c0-0.2,0.1-0.2,0.1-0.4c0.2,0-0.1,0.1,0.2,0.1
	c0-0.2,0.1-0.2,0.1,0c0.1,0,0.2-0.2,0.2-0.3c-0.1,0-0.2,0-0.1-0.1c0.4,0,0.2-0.1,0.2,0.2c0.7,0,0.1-0.2,0.1-0.6
	C195.7,0.6,195.8,0.6,195.8,0.6z M115.4,18.4c0,0.4-0.8,0.3-0.5,0C115,18.2,115.1,18.4,115.4,18.4z M166.4,7.4l-0.1-0.1
	c0,0,0,0,0-0.1h0.1C166.4,7.3,166.4,7.3,166.4,7.4z M192.4,1.3h-0.1l0,0l0,0v0.1l0,0V1.2c0.1,0,0.1,0,0.2,0
	C192.4,1.2,192.4,1.3,192.4,1.3z M196.1,1.1c0.1,0,0.2,0,0.2,0V1c-0.1,0-0.2,0-0.2,0S196.1,1,196.1,1.1z M29.5,74.3
	c0,1-1.4,0.5-1.4,1.1c0,0.1,0.1,0.2,0.2,0.2c0.7,0,1.6-0.1,2.3-0.1s1.5,0.1,2.1,0.1c0.3,0,0.3-0.1,0.3-0.2c0-0.4-1.9-0.1-1.9-1.2
	v-6.5c0-0.8,0.5-1,1.2-1c1.3,0,2.9,0.5,2.9,2.2c0,1.2-0.6,1.9-2.2,1.9c-0.5,0-0.8-0.1-1.1-0.1c-0.2,0-0.3,0.1-0.3,0.2
	c0,0.3,0.7,0.5,1.8,0.5c2.1,0,3.7-1.1,3.7-2.7c0-1.2-1-2.6-3.8-2.6c-0.6,0-1.2,0.1-1.6,0.1c-0.6,0-1.1,0.1-1.7,0.1
	c-0.5,0-1.2-0.1-1.8-0.1c-0.6,0-0.8,0.1-0.8,0.3c0,0.5,2,0,2,1.5L29.5,74.3L29.5,74.3z M47.2,71h2.3c1.7,0,1.2,1.4,1.7,1.4
	c0.2,0,0.3-0.1,0.3-0.3c0-0.5,0-1.1,0-1.8c0-0.4,0.1-0.9,0.1-1.1c0-0.1-0.1-0.2-0.3-0.2c-0.5,0-0.1,1.2-1.8,1.2h-2.2v-2.8
	c0-0.6,0.6-0.6,1.9-0.6c1.8,0,2.7,0.3,2.9,1c0,0.3,0.1,0.6,0.3,0.6s0.3-0.1,0.3-0.3c0-1.2,0-1.6,0-1.8c0-0.1-0.1-0.2-0.2-0.2
	c-0.3,0-2.4,0.1-4.1,0.1c-1.5,0-3-0.1-4-0.1c-0.2,0-0.4,0.1-0.4,0.2c0,0.4,1.6,0.1,1.6,1.3V74c0,1.3-1.5,0.9-1.5,1.3
	c0,0.1,0.2,0.2,0.5,0.2c0.8,0,2.1-0.1,3.2-0.1c1.2,0,2.1,0.1,3,0.1c1.1,0,1.4-0.1,1.8-0.4c0.7-0.5,1-1.4,1-1.6c0-0.1,0-0.2-0.2-0.2
	c-0.3,0-0.8,1.5-4.1,1.5c-1.3,0-1.9-0.2-1.9-0.8v-3H47.2z M63.4,67.5c0-0.7,0.4-0.9,1.1-0.9c0.9,0,3.2,0.2,3.2,2.1
	c0,1.2-0.8,1.8-2.6,1.8h-1.7V67.5L63.4,67.5z M63.4,71.1h1.3c0.6,0,0.7,0.1,1.5,1l2.2,2.7c0.4,0.5,0.9,0.6,1.2,0.6H71
	c0.5,0,0.8-0.2,0.8-0.4c0-0.2-0.1-0.2-0.5-0.2c-0.5,0-0.9-0.1-1.4-0.7L67,70.8c1-0.3,2.4-0.7,2.4-2.2c0-1.2-0.9-2.5-4-2.5
	c-0.8,0-1.7,0.1-3,0.1c-0.9,0-1.5-0.1-2-0.1c-0.3,0-0.5,0.1-0.5,0.3c0,0.5,1.7-0.1,1.7,1.5V74c0,1.3-1.4,0.8-1.4,1.4
	c0,0.1,0.1,0.2,0.2,0.2c0.7,0,1.6-0.1,2.3-0.1s1.5,0.1,2.1,0.1c0.3,0,0.3-0.1,0.3-0.2c0-0.4-1.8-0.1-1.8-1.2L63.4,71.1L63.4,71.1z
	 M81.2,71h2.3c1.7,0,1.2,1.4,1.7,1.4c0.2,0,0.3-0.1,0.3-0.3c0-0.5,0-1.1,0-1.8c0-0.4,0.1-0.9,0.1-1.1c0-0.1-0.1-0.2-0.3-0.2
	c-0.5,0-0.1,1.2-1.8,1.2h-2.2v-2.8c0-0.6,0.6-0.6,1.9-0.6c1.8,0,2.7,0.3,2.9,1c0,0.3,0.1,0.6,0.3,0.6c0.2,0,0.3-0.1,0.3-0.3
	c0-1.2,0-1.6,0-1.8c0-0.1-0.1-0.2-0.2-0.2c-0.3,0-2.4,0.1-4.1,0.1c-1.5,0-3-0.1-4-0.1c-0.2,0-0.4,0.1-0.4,0.2c0,0.4,1.6,0.1,1.6,1.3
	V74c0,1.3-1.5,0.9-1.5,1.3c0,0.1,0.2,0.2,0.5,0.2c0.8,0,2.1-0.1,3.2-0.1c1.2,0,2.1,0.1,3,0.1c1.1,0,1.4-0.1,1.9-0.4
	c0.7-0.5,1-1.4,1-1.6c0-0.1,0-0.2-0.2-0.2c-0.3,0-0.8,1.5-4.1,1.5c-1.3,0-1.9-0.2-1.9-0.8v-3H81.2z M104.8,72.2c0-0.8,1.2-0.6,1.2-1
	c0-0.1-0.1-0.2-0.4-0.2s-0.9,0.1-1.5,0.1c-0.8,0-2-0.1-2.4-0.1c-0.2,0-0.4,0.1-0.4,0.2c0,0.4,1.8,0.1,1.8,1.1V73
	c0,0.8-0.2,1.2-0.9,1.5c-0.6,0.3-1.4,0.5-2.4,0.5c-2.3,0-3.7-1.5-3.7-4.3c0-2.9,1.9-4.3,4.1-4.3c0.9,0,1.6,0.2,2.1,0.5
	c1.8,0.9,1.6,2.5,2.1,2.5c0.1,0,0.2-0.1,0.2-0.2c0-0.4-0.1-1.8-0.1-2.7c0-0.2,0-0.3-0.2-0.3s-0.2,0.5-0.5,0.5
	c-0.5,0-1.5-0.8-3.8-0.8c-3.2,0-5.8,2-5.8,4.9c0,2.7,1.8,4.7,5.1,4.7c2.6,0,3.8-1.2,4.9-1.2h0.5v-2.1H104.8z M115.6,67.5
	c0-0.7,0.4-0.9,1.1-0.9c0.9,0,3.2,0.2,3.2,2.1c0,1.2-0.8,1.8-2.6,1.8h-1.7V67.5L115.6,67.5z M115.6,71.1h1.3c0.6,0,0.7,0.1,1.5,1
	l2.2,2.7c0.4,0.5,0.9,0.6,1.2,0.6h1.4c0.5,0,0.8-0.2,0.8-0.4c0-0.2-0.1-0.2-0.5-0.2c-0.5,0-0.9-0.1-1.4-0.7l-2.9-3.4
	c1-0.3,2.4-0.7,2.4-2.2c0-1.2-0.9-2.5-4-2.5c-0.8,0-1.7,0.1-3,0.1c-0.9,0-1.5-0.1-2-0.1c-0.3,0-0.5,0.1-0.5,0.3
	c0,0.5,1.7-0.1,1.7,1.5V74c0,1.3-1.4,0.8-1.4,1.4c0,0.1,0.1,0.2,0.2,0.2c0.7,0,1.6-0.1,2.3-0.1c0.7,0,1.5,0.1,2.1,0.1
	c0.3,0,0.3-0.1,0.3-0.2c0-0.4-1.9-0.1-1.9-1.2v-3.1H115.6z M131.5,74.3c0,1-1.4,0.5-1.4,1.1c0,0.1,0.1,0.2,0.2,0.2
	c0.7,0,1.6-0.1,2.3-0.1s1.5,0.1,2.1,0.1c0.3,0,0.3-0.1,0.3-0.2c0-0.4-1.9-0.1-1.9-1.2v-6.9c0-1,1.4-0.5,1.4-1.1
	c0-0.1-0.1-0.2-0.2-0.2c-0.7,0-1.6,0.1-2.3,0.1s-1.5-0.1-2.1-0.1c-0.3,0-0.3,0.1-0.3,0.2c0,0.4,1.9,0.1,1.9,1.2V74.3L131.5,74.3z
	 M152.2,73l-0.2,0.1l-7.1-6.7c-0.2-0.2-0.5-0.3-0.8-0.3c-0.4,0-0.8,0.1-1.3,0.1c-0.6,0-0.9-0.1-1.2-0.1s-0.4,0.1-0.4,0.1
	c0,0.5,2.1,0,2.1,1.7v5.3c0,2.2-1.7,1.6-1.7,2.2c0,0.1,0.1,0.2,0.3,0.2c0.6,0,1.2-0.1,1.9-0.1c0.6,0,1.4,0.1,2,0.1
	c0.3,0,0.4,0,0.4-0.1c0-0.6-2,0-2-1.5v-5.7h0.1l7.4,7c0.4,0.4,0.6,0.5,0.8,0.5c0.3,0,0.4-0.1,0.4-0.4V68c0-1.6,1.6-1.2,1.6-1.6
	c0-0.1-0.1-0.2-0.3-0.2c-0.5,0-1.1,0.1-2,0.1c-0.7,0-1.5-0.1-2-0.1c-0.2,0-0.4,0.1-0.4,0.2c0,0.5,2.2,0,2.2,1.8V73H152.2z M163.9,71
	h2.3c1.7,0,1.2,1.4,1.7,1.4c0.2,0,0.3-0.1,0.3-0.3c0-0.5,0-1.1,0-1.8c0-0.4,0.1-0.9,0.1-1.1c0-0.1-0.1-0.2-0.3-0.2
	c-0.5,0-0.1,1.2-1.8,1.2H164v-2.8c0-0.6,0.6-0.6,1.9-0.6c1.8,0,2.7,0.3,2.9,1c0,0.3,0.1,0.6,0.3,0.6s0.3-0.1,0.3-0.3
	c0-1.2,0-1.6,0-1.8c0-0.1-0.1-0.2-0.2-0.2c-0.3,0-2.4,0.1-4.1,0.1c-1.5,0-3-0.1-4-0.1c-0.2,0-0.4,0.1-0.4,0.2c0,0.4,1.6,0.1,1.6,1.3
	V74c0,1.3-1.5,0.9-1.5,1.3c0,0.1,0.2,0.2,0.5,0.2c0.8,0,2.1-0.1,3.2-0.1c1.2,0,2.1,0.1,3,0.1c1.1,0,1.4-0.1,1.8-0.4
	c0.7-0.5,1-1.4,1-1.6c0-0.1,0-0.2-0.2-0.2c-0.3,0-0.8,1.5-4.1,1.5c-1.3,0-1.9-0.2-1.9-0.8v-3H163.9z"/>
</svg>
